PathFileType	4	(X/Y/Z)	C:/Users/dbak576/Desktop/Duncan Bakke Modelling Files/H30s1/Static_H30s1.trc	
DataRate	CameraRate	NumFrames	NumMarkers	Units	OrigDataRate	OrigDataStartFrame	OrigNumFrames	
200.00	200.00	4	63	mm	200.00	1594	360	
Frame#	Time	LFHD			RFHD			LBHD			RBHD			C7			T10			CLAV			RBack			LASI			RASI			LPSI			RPSI			RACR1			RUA1			RElbow			RElbowM			RFA1			RWRR			RWRU			RCAR			LACR1			LUA1			LElbow			LElbowM			LFA1			LWRR			LWRU			LCAR			RTH1			RTH3			RTH2			RTH4			RLFC			RMFC			RTB1			RTB3			RTB2			RTB4			RLMAL			RMMAL			RMT1			RMT5			RToe			LTH1			LTH3			LTH2			LTH4			LLFC			LMFC			LTB1			LTB3			LTB2			LTB4			LLMAL			LMMAL			LCAL			LMT1			LMT5			LToe			RCAL			STRN			*61			*62			
		X1	Y1	Z1	X2	Y2	Z2	X3	Y3	Z3	X4	Y4	Z4	X5	Y5	Z5	X6	Y6	Z6	X7	Y7	Z7	X8	Y8	Z8	X9	Y9	Z9	X10	Y10	Z10	X11	Y11	Z11	X12	Y12	Z12	X13	Y13	Z13	X14	Y14	Z14	X15	Y15	Z15	X16	Y16	Z16	X17	Y17	Z17	X18	Y18	Z18	X19	Y19	Z19	X20	Y20	Z20	X21	Y21	Z21	X22	Y22	Z22	X23	Y23	Z23	X24	Y24	Z24	X25	Y25	Z25	X26	Y26	Z26	X27	Y27	Z27	X28	Y28	Z28	X29	Y29	Z29	X30	Y30	Z30	X31	Y31	Z31	X32	Y32	Z32	X33	Y33	Z33	X34	Y34	Z34	X35	Y35	Z35	X36	Y36	Z36	X37	Y37	Z37	X38	Y38	Z38	X39	Y39	Z39	X40	Y40	Z40	X41	Y41	Z41	X42	Y42	Z42	X43	Y43	Z43	X44	Y44	Z44	X45	Y45	Z45	X46	Y46	Z46	X47	Y47	Z47	X48	Y48	Z48	X49	Y49	Z49	X50	Y50	Z50	X51	Y51	Z51	X52	Y52	Z52	X53	Y53	Z53	X54	Y54	Z54	X55	Y55	Z55	X56	Y56	Z56	X57	Y57	Z57	X58	Y58	Z58	X59	Y59	Z59	X60	Y60	Z60	X61	Y61	Z61	X62	Y62	Z62	X63	Y63	Z63	

316	1.575	-39.70237	-342.07614	1589.48010	59.90783	-335.67105	1592.95776	-53.28257	-495.38635	1554.63794	90.98744	-484.74258	1564.67188	16.45127	-518.11444	1425.34839	18.84298	-547.38196	1197.41895	18.35613	-392.91495	1343.16711	86.51424	-571.37640	1280.84131	-96.65285	-343.60028	920.20435	155.74867	-351.71454	939.11139	-25.26360	-524.50891	965.14319	74.20961	-525.24872	964.89374	162.54108	-492.51816	1384.40369	299.53076	-477.51242	1327.52100	453.12000	-430.09872	1302.53821	422.92749	-374.09326	1272.12488	579.56934	-405.18243	1341.49573	674.28711	-347.95911	1401.49915	691.47125	-338.15460	1335.38428	754.15094	-328.43475	1387.59253	-116.78683	-484.01559	1395.64844	-259.85382	-489.16217	1333.26062	-405.08511	-451.04144	1295.68323	-390.93173	-397.86221	1260.56738	-535.73340	-404.48724	1337.59375	-620.60919	-343.50470	1400.11548	-632.73889	-317.25354	1339.05249	-697.83673	-323.03275	1390.44226	241.87083	-411.16925	775.94983	224.22528	-422.51630	604.84442	211.28319	-362.47714	690.10022	232.37260	-417.67090	687.91180	213.13528	-432.58578	457.22122	89.77632	-468.47318	435.26230	196.86700	-415.62027	348.44232	202.05605	-431.11014	176.23489	240.98961	-468.99753	267.93146	200.82161	-422.50757	261.92725	225.54593	-487.07462	68.59191	145.10822	-470.66431	80.33385	156.60643	-347.61337	34.54111	245.11267	-380.06250	24.59132	184.52507	-289.63461	25.97761	-175.10843	-408.44952	761.18353	-161.96196	-430.53040	590.96948	-148.87852	-364.59204	669.87225	-171.03766	-419.92899	675.44397	-156.78307	-451.78336	451.94525	-27.22598	-473.27484	428.60364	-107.16525	-414.12402	346.76462	-118.21007	-429.88672	177.03426	-171.73357	-443.08862	266.92035	-113.24911	-425.66187	261.16849	-171.16959	-485.11636	69.61555	-91.11379	-468.30530	79.19548	-130.72726	-535.90741	33.43040	-111.02341	-342.60919	30.03470	-193.20285	-376.26331	24.89878	-140.01920	-283.51056	24.95774	186.51007	-535.44781	38.87922	19.52632	-342.44577	1221.35010						 
317	1.580	-39.70243	-342.08118	1589.48181	59.94599	-335.65793	1592.96973	-53.28210	-495.38647	1554.63721	90.92246	-484.72495	1564.63708	16.45869	-518.11084	1425.33521	18.84292	-547.37775	1197.41846	18.34665	-392.92368	1343.17017	86.46259	-571.37134	1280.86780	-96.66436	-343.61313	920.21106	155.77171	-351.72665	939.12170	-25.33847	-524.54852	965.16840	74.20965	-525.24811	964.88190	162.54120	-492.53882	1384.40991	299.51923	-477.51987	1327.48914	453.11743	-430.14911	1302.56042	422.92712	-374.09152	1272.13538	579.55530	-405.21463	1341.53906	674.29919	-347.98367	1401.49866	691.44611	-338.14740	1335.40625	754.16516	-328.42926	1387.60730	-116.75637	-483.97910	1395.63306	-259.87177	-489.17255	1333.26868	-405.13107	-451.07440	1295.69409	-390.93741	-397.92947	1260.59460	-535.78369	-404.48486	1337.61511	-620.64807	-343.54831	1400.13452	-632.74292	-317.28519	1339.04163	-697.75146	-322.96817	1390.41614	241.86877	-411.16431	775.93030	224.23001	-422.50443	604.85980	211.29977	-362.43872	690.10822	232.40962	-417.69037	687.91071	213.11223	-432.47635	457.14825	89.76812	-468.43753	435.27261	196.87642	-415.62399	348.42175	201.98822	-431.10226	176.24678	241.20078	-468.87036	267.92480	200.81670	-422.50674	261.93570	225.54820	-487.10349	68.60959	145.11205	-470.64081	80.29366	156.60539	-347.63177	34.49553	245.05687	-380.05292	24.59325	184.48483	-289.66693	25.93039	-175.09773	-408.43427	761.17798	-161.96652	-430.53033	590.96161	-148.83414	-364.58923	669.88129	-171.02940	-419.93991	675.46027	-156.80161	-451.80917	451.90903	-27.22713	-473.28836	428.62854	-107.16593	-414.15659	346.77795	-118.22312	-429.86121	177.02248	-171.73866	-443.09021	266.93561	-113.23723	-425.66507	261.15228	-171.12727	-485.08951	69.59676	-91.13132	-468.29932	79.19627	-130.71761	-535.91620	33.42506	-111.02592	-342.62323	30.02432	-193.18706	-376.26279	24.90845	-140.02744	-283.51468	24.95532	186.50336	-535.45416	38.90859	19.51948	-342.45807	1221.35437						 
318	1.585	-39.70094	-342.07996	1589.51929	59.96945	-335.67679	1592.96216	-53.31940	-495.43250	1554.66870	90.87862	-484.74515	1564.63000	16.43742	-518.11493	1425.33154	18.81580	-547.40381	1197.42249	18.34368	-392.92670	1343.16260	86.45703	-571.37128	1280.85535	-96.66574	-343.61447	920.21173	155.78087	-351.72784	939.11414	-25.29145	-524.52264	965.14795	74.20663	-525.24554	964.83466	162.55801	-492.51859	1384.38586	299.53613	-477.51559	1327.47791	453.10110	-430.14676	1302.53870	422.90106	-374.10168	1272.15161	579.55457	-405.22339	1341.53455	674.29224	-347.98666	1401.52161	691.46405	-338.15396	1335.41187	754.10187	-328.46463	1387.61121	-116.83093	-484.04474	1395.63525	-259.73834	-489.07935	1333.14368	-405.07294	-451.03296	1295.70190	-390.93408	-397.84851	1260.59619	-535.79895	-404.48923	1337.64282	-620.66809	-343.54257	1400.13635	-632.78741	-317.28506	1339.08057	-697.81262	-323.01999	1390.45654	241.84428	-411.20563	775.92413	224.21988	-422.51254	604.85773	211.29326	-362.41562	690.11139	232.39105	-417.72345	687.91022	213.14423	-432.59012	457.22998	89.79967	-468.47083	435.24362	196.85493	-415.63251	348.43521	202.02232	-431.11288	176.24413	241.22926	-468.85510	267.95071	200.80304	-422.52353	261.92831	225.58017	-487.11050	68.60291	145.11530	-470.63693	80.29028	156.59772	-347.63730	34.51614	245.06837	-380.06470	24.59230	184.51425	-289.63907	25.99038	-175.06335	-408.47626	761.18738	-161.96677	-430.53040	590.96118	-148.84204	-364.58990	669.87421	-170.95038	-419.94199	675.35681	-156.80339	-451.83789	451.91483	-27.22106	-473.27240	428.62918	-107.16784	-414.18839	346.77267	-118.22834	-429.82971	177.07434	-171.70767	-443.09982	266.92380	-113.25460	-425.65634	261.13629	-171.16461	-485.04260	69.49224	-91.11842	-468.31528	79.22260	-130.76015	-535.88757	33.33410	-111.02678	-342.58755	30.03423	-193.19989	-376.24719	24.92739	-140.03603	-283.54276	24.97160	186.49669	-535.33655	39.24195	19.51914	-342.46475	1221.34814	19.56284	-342.58163	1221.29602			 
319	1.590	-39.70874	-342.07590	1589.50537	60.03401	-335.55878	1592.91956	-53.32508	-495.43640	1554.67126	90.88732	-484.74728	1564.62988	16.42735	-518.11285	1425.33289	18.85380	-547.42181	1197.42065	18.33806	-392.90082	1343.14429	86.43659	-571.37714	1280.83362	-96.66721	-343.61472	920.21259	155.78052	-351.72739	939.11346	-25.27701	-524.51593	965.14294	74.20638	-525.24506	964.83209	162.56604	-492.52072	1384.35278	299.51718	-477.55887	1327.50073	453.08380	-430.14505	1302.55945	422.88910	-374.07391	1272.16211	579.55933	-405.20621	1341.53186	674.30255	-348.01358	1401.49341	691.43298	-338.17224	1335.40686	754.11438	-328.46307	1387.63599	-116.82436	-484.03555	1395.63184	-259.75354	-489.04846	1333.14331	-405.11630	-451.05899	1295.72363	-390.92459	-397.79660	1260.59082	-535.79883	-404.49030	1337.64355	-620.72803	-343.53864	1400.15295	-632.78857	-317.29111	1339.08301	-697.75409	-322.96973	1390.41809	241.89577	-411.21387	775.94885	224.22533	-422.51968	604.88007	211.27441	-362.40536	690.12878	232.42882	-417.73605	687.89612	213.16245	-432.59595	457.24646	89.76337	-468.43332	435.25864	196.84352	-415.63226	348.43832	202.02013	-431.12460	176.22185	241.23122	-468.87930	267.92242	200.82420	-422.53995	261.92355	225.54167	-487.11154	68.59127	145.11404	-470.62564	80.31231	156.59995	-347.63812	34.52041	245.07339	-380.04590	24.60642	184.52898	-289.64682	25.96867	-175.07947	-408.47525	761.19281	-161.96222	-430.53183	590.96960	-148.84792	-364.63071	669.87451	-170.98157	-419.93399	675.39948	-156.79201	-451.84827	451.92731	-27.22467	-473.27353	428.60535	-107.16990	-414.18881	346.77112	-118.17844	-429.83563	177.05843	-171.71135	-443.10440	266.93799	-113.25938	-425.65552	261.15326	-171.13396	-485.09341	69.59254	-91.13428	-468.30902	79.21753	-130.75980	-535.94440	33.46533	-111.02341	-342.61746	30.03178	-193.20694	-376.27380	24.90323	-140.04482	-283.54932	24.94923	186.50043	-535.33917	39.26731	19.51616	-342.44250	1221.33142						 
